<?xml version="1.0" encoding="UTF-8"?>
<svg width="240px" height="306px" viewBox="0 0 240 306" version="1.1" xmlns="http://www.w3.org/2000/svg" xmlns:xlink="http://www.w3.org/1999/xlink">
    <!-- Generator: Sketch 47.1 (45422) - http://www.bohemiancoding.com/sketch -->
    <title>ShadowTree</title>
    <desc>Created with Sketch.</desc>
    <defs>
        <polygon id="path-1" points="239.447676 277.998583 239.447676 0.0995133758 0 0.0995133758 9.60635013e-20 277.998583"></polygon>
        <polygon id="path-3" points="0 306 239 306 239 0 0 0"></polygon>
    </defs>
    <g id="Mobile" stroke="none" stroke-width="1" fill="none" fill-rule="evenodd" opacity="0.1">
        <g id="99-Exportables" transform="translate(-135.000000, 0.000000)">
            <g id="Group" transform="translate(-15.000000, 0.000000)">
                <g id="Shadow/Tree" transform="translate(150.000000, 0.000000)">
                    <g id="Page-1">
                        <g id="Group-3" transform="translate(0.000000, 28.000000)">
                            <mask id="mask-2" fill="white">
                                <use xlink:href="#path-1"></use>
                            </mask>
                            <g id="Clip-2"></g>
                            <path d="M215.733099,248.447361 C215.637408,248.567768 215.541717,248.689946 215.446026,248.810354 C212.786165,248.107386 210.126305,247.402647 207.648967,246.747488 C208.742327,246.326061 210.13871,245.787768 211.386239,245.307908 C212.72946,246.276482 214.232165,247.363692 215.733099,248.447361 L215.733099,248.447361 Z M206.424474,255.942736 C206.835592,254.644813 207.205952,253.479692 207.57454,252.316341 C207.836805,252.268532 208.100842,252.222494 208.364879,252.174685 C209.006364,253.219399 209.647849,254.262341 210.473629,255.604532 C208.898268,255.735564 207.803136,255.827641 206.424474,255.942736 L206.424474,255.942736 Z M201.687761,243.059118 C204.00207,243.337118 206.468776,241.42122 208.604107,243.526583 C206.257901,243.56731 203.826636,244.718265 201.687761,243.059118 L201.687761,243.059118 Z M172.122732,239.577921 C171.858695,239.554902 171.615923,239.377832 171.350114,239.335335 C168.711518,238.935157 167.78296,239.438036 167.159195,241.677972 C165.589151,240.613781 164.061636,239.579692 162.328563,238.405717 C163.895063,238.329577 165.229423,238.265832 166.989077,238.179068 C166.388349,237.339755 165.582063,236.688138 165.495232,235.978087 C165.367643,234.933373 165.589151,233.805437 165.957739,232.787284 C166.422018,231.505297 167.185776,230.295908 167.876879,228.943093 C168.752276,231.978074 167.30096,235.372507 170.676732,237.88159 C172.872313,236.92187 173.092048,235.087424 172.983952,233.596494 C172.75004,230.340176 172.055393,227.099794 171.362518,223.878889 C171.195945,223.103322 170.295739,222.43931 169.760577,221.70801 C169.521349,221.383972 169.351232,221.02452 169.150989,220.679233 C172.19007,221.676138 172.514357,223.878889 173.398614,226.017896 C174.796768,229.394622 176.96754,232.555322 178.764408,235.825806 C179.508673,237.180392 180.13421,238.577475 180.997202,240.330469 C177.917364,240.071946 175.018276,239.834673 172.122732,239.577921 L172.122732,239.577921 Z M168.940114,269.655042 C169.016313,269.274341 169.103143,268.835208 169.266173,268.011832 C168.396092,268.569603 167.837893,268.927284 166.760482,269.619628 C166.951864,268.610329 167.090085,267.976418 167.185776,267.340736 C167.283239,266.701513 167.338173,266.058749 167.426776,265.27787 C168.690254,266.928163 169.820827,268.404927 171.126835,270.110112 C170.178783,269.911794 169.696783,269.810864 168.940114,269.655042 L168.940114,269.655042 Z M159.650982,231.198966 C158.238651,230.481832 156.833408,229.752303 155.807386,229.226405 C158.017143,228.567704 160.903827,227.710685 163.740893,226.866061 C163.23054,228.070138 162.654621,229.396392 162.108827,230.72973 C161.591386,231.992239 160.652195,231.708927 159.650982,231.198966 L159.650982,231.198966 Z M157.212629,244.447348 C156.160026,243.708966 155.367915,243.152966 154.574033,242.595195 C155.568158,242.411042 156.562283,242.225118 158.086254,241.941806 C157.776143,242.830698 157.559952,243.448673 157.212629,244.447348 L157.212629,244.447348 Z M155.603599,211.653972 C154.577577,210.750915 153.815592,210.079819 152.888805,209.265297 C152.977408,208.698673 153.117401,207.825717 153.275114,206.825271 C154.600614,208.080698 155.99168,209.111246 156.89543,210.375526 C157.36857,211.035997 157.175415,212.15508 156.881254,212.971373 C156.776702,213.259997 155.484871,213.375093 154.738835,213.369781 C153.631298,213.362698 152.527305,213.171462 151.616467,213.079386 C152.759445,212.670354 153.991026,212.23122 155.603599,211.653972 L155.603599,211.653972 Z M147.285555,183.960214 C148.983188,183.714087 150.581585,183.483896 152.181754,183.251934 C150.170467,185.739768 149.085967,185.837157 147.285555,183.960214 L147.285555,183.960214 Z M143.594357,218.083386 L143.378165,217.621233 C143.704224,216.971386 144.028511,216.317997 144.416592,215.54066 C145.49932,216.316227 146.422563,216.976698 147.312136,217.61238 C145.74918,219.427348 144.742651,217.658418 143.594357,218.083386 L143.594357,218.083386 Z M143.851305,239.216698 C142.222783,238.347284 140.596033,237.479641 138.460702,236.337539 C140.546415,236.456176 142.130636,236.282647 143.395886,236.723552 C144.06218,236.955513 144.172048,238.258749 144.533548,239.078583 C144.304952,239.124622 144.078129,239.17066 143.851305,239.216698 L143.851305,239.216698 Z M136.594724,154.775526 C138.758408,155.317361 140.826401,155.837946 143.043246,156.395717 C141.17904,158.104443 138.168313,157.713118 136.594724,154.775526 L136.594724,154.775526 Z M140.424143,132.82415 C140.21504,133.445666 140.00771,134.06187 139.846452,134.543501 C138.51032,134.355806 137.354938,134.192902 136.203099,134.029997 C136.678011,132.126494 136.678011,132.126494 140.424143,132.82415 L140.424143,132.82415 Z M133.355401,108.044966 C132.306342,109.489857 131.16868,110.892252 130.061143,112.310583 C129.96368,112.287564 129.864445,112.262775 129.766982,112.239755 C129.915835,111.373883 130.043423,110.504469 130.217085,109.640367 C130.39429,108.769182 130.61757,107.90331 130.839077,106.959526 C131.296268,107.037437 131.781813,107.161386 132.274445,107.186176 C132.612908,107.202112 132.963776,107.076392 133.307555,107.014418 C133.332364,107.361475 133.534379,107.795297 133.355401,108.044966 L133.355401,108.044966 Z M125.910982,74.3414497 C128.283768,72.7690675 130.105445,71.3365707 128.748048,69.0328892 C130.527195,68.8434242 131.801305,70.4494497 131.886364,73.1426854 C129.36118,71.2799083 128.581474,74.3963414 125.910982,74.3414497 L125.910982,74.3414497 Z M123.959945,96.4327108 L123.959945,92.0502268 C126.385893,93.5748 124.929261,94.7948127 123.959945,96.4327108 L123.959945,96.4327108 Z M124.46321,116.006036 C124.270055,116.020201 124.078673,116.037908 123.885518,116.052074 C123.281246,115.173806 122.579511,114.325641 122.127636,113.397794 C121.984099,113.103857 122.389901,112.492966 122.756717,112.207883 C123.290107,111.789997 124.014879,111.535017 125.003688,111.03745 C124.805217,112.861271 124.633327,114.433654 124.46321,116.006036 L124.46321,116.006036 Z M121.943342,149.171259 C121.796261,149.509462 121.409952,149.78038 120.952761,150.281488 C120.146474,147.586482 119.414614,145.146456 118.684526,142.708201 C120.509746,144.788775 123.128849,146.465628 121.943342,149.171259 L121.943342,149.171259 Z M141.313717,145.638711 C140.238077,145.215513 139.30243,145.052609 139.252813,144.783462 C139.137629,144.154864 139.451283,143.471373 139.589504,142.810902 C139.780886,142.83038 139.970496,142.849857 140.160107,142.869335 C140.461357,143.593552 140.764379,144.319539 141.313717,145.638711 L141.313717,145.638711 Z M132.407349,96.2503287 C133.321732,95.9386854 134.064224,95.6872459 134.764188,95.4482013 C136.536246,96.2910548 138.497915,97.2224433 140.457813,98.1556025 C140.440092,98.2866344 140.420599,98.4176662 140.402879,98.5469274 C137.696945,98.7806599 134.991011,99.0143924 132.407349,99.2375006 L132.407349,96.2503287 Z M140.255798,75.6924943 C141.75496,77.9749274 138.490827,80.5831694 134.900636,81.9979592 C136.639026,79.9510293 138.377415,77.9058701 140.255798,75.6924943 L140.255798,75.6924943 Z M150.298055,175.172227 C150.588673,173.346634 150.627658,171.49094 150.803092,169.289959 C151.650136,169.883144 152.374908,170.541845 153.264482,170.973896 C154.36493,171.508647 155.582335,171.901743 156.789107,172.264736 C157.485526,172.47545 158.259915,172.509093 159.105188,172.638354 C160.451952,172.179743 160.684092,171.041182 159.90793,170.240825 C158.247511,168.528558 159.351504,166.920762 159.654526,165.077462 C161.130651,165.934482 162.482732,166.724214 163.834813,167.512176 C163.891518,167.54759 163.939364,167.611335 164.001386,167.618418 C165.475739,167.786634 166.951864,167.949539 168.427989,168.114214 C167.690813,167.227093 166.967813,166.332889 166.209371,165.458163 C166.028621,165.250991 165.727371,165.112876 165.550165,164.76759 C170.104357,165.442227 174.465393,167.085437 179.340327,166.193004 C179.416526,167.103144 179.482092,167.889335 179.552974,168.73573 C179.24818,168.778227 178.760864,168.843743 178.268232,168.911029 C178.268232,168.900405 178.273548,168.891552 178.273548,168.880927 C177.123482,167.804341 174.938533,167.914125 173.699864,169.042061 C172.415121,170.210724 170.995702,171.281997 169.749945,172.47545 C169.276805,172.93052 169.120864,173.603386 168.357107,174.116889 C168.357107,173.518392 168.466974,172.902189 168.330526,172.32494 C168.124967,171.451985 168.059401,170.269157 167.36121,169.835335 C166.602768,169.364329 165.693702,170.008864 164.935261,170.832239 C164.079357,171.763628 163.356357,172.859692 161.649864,173.451106 C160.517518,173.842431 160.257026,175.926545 159.613768,177.256341 C159.542886,177.40331 159.505673,177.560902 159.406438,177.849526 C159.266445,177.392685 159.248724,177.042087 159.053798,176.77294 C158.766724,176.376303 158.238651,175.689271 158.018915,175.73708 C157.271107,175.907068 156.264577,176.215169 155.993452,176.703883 C155.336018,177.893794 153.40093,179.17401 152.236688,178.851743 C150.946629,178.497603 150.076548,176.551603 150.298055,175.172227 L150.298055,175.172227 Z M181.089349,174.17001 C180.896195,173.998252 180.713673,173.819411 180.508114,173.660048 C180.034974,173.293513 179.552974,172.935832 179.072746,172.57638 C178.860099,173.109361 178.564165,173.631717 178.454298,174.180634 C178.287724,175.019946 178.14596,175.409501 176.785018,175.138583 C175.806842,174.943806 174.598298,175.521055 173.269254,175.802596 C175.076754,173.307679 177.943945,171.756545 178.261143,168.941131 C181.273643,169.876061 180.144842,172.39931 181.089349,174.17001 L181.089349,174.17001 Z M160.182599,220.326864 C159.978813,220.921819 159.78743,221.481361 159.565923,222.127666 C157.737158,221.541564 156.17243,221.040456 154.60593,220.539348 L154.611246,220.326864 L160.182599,220.326864 Z M115.932518,90.3875389 C115.75354,90.3131694 115.574563,90.2388 115.393813,90.1644306 C115.86518,89.2259592 116.333004,88.2857172 116.95854,87.0373732 C117.607114,87.5561885 117.996967,87.8678318 118.409857,88.1989529 C117.479526,89.020558 116.706908,89.7040484 115.932518,90.3875389 L115.932518,90.3875389 Z M118.28404,78.2546981 C118.296445,78.3467745 118.307077,78.4406217 118.315938,78.5344688 C117.833938,78.6566471 117.350165,78.7788255 117.144607,78.8301758 C117.013474,79.6730293 116.905379,80.3494369 116.799055,81.0258446 C116.559827,81.0276153 116.322371,81.029386 116.083143,81.0311567 C115.769489,80.1280994 115.454063,79.225042 115.028768,78.0068 C116.302879,78.1041885 117.29346,78.178558 118.28404,78.2546981 L118.28404,78.2546981 Z M106.77629,86.6690675 C107.55068,88.1139592 108.121283,89.1781503 108.854915,90.5469019 C106.537063,89.789042 105.365732,88.9497299 106.77629,86.6690675 L106.77629,86.6690675 Z M106.976533,57.836749 C108.810614,59.3188255 108.766313,60.8433987 106.976533,61.7960357 L106.976533,57.836749 Z M98.3129375,76.4379592 C98.9703713,75.2763796 99.8528566,74.8213096 100.969254,75.5862522 C102.590688,76.6982522 104.050864,77.9696153 105.472055,79.3861758 C103.118761,78.4176025 100.765467,77.4472586 98.3129375,76.4379592 L98.3129375,76.4379592 Z M102.780298,85.3870803 C101.529224,84.1564433 100.393335,83.0409019 99.1777022,81.8474497 C104.695893,82.6283287 104.704754,82.6354115 102.780298,85.3870803 L102.780298,85.3870803 Z M99.6614743,150.198265 C99.5551507,150.065462 99.4488272,149.934431 99.3425037,149.803399 C100.706989,148.870239 102.071474,147.93708 103.606077,146.890596 C103.600761,148.944609 102.358548,149.899017 99.6614743,150.198265 L99.6614743,150.198265 Z M99.200739,114.715195 C99.9804449,114.104303 100.400423,113.776724 100.988746,113.316341 C101.71529,114.19815 102.333739,114.947157 102.952188,115.697934 C102.766121,115.809488 102.580055,115.922813 102.392217,116.036138 C101.41404,115.630647 100.437636,115.225157 99.200739,114.715195 L99.200739,114.715195 Z M95.0877904,124.207921 C97.1664154,122.763029 98.2597757,120.149475 101.828702,120.703704 C100.005254,123.961794 97.304636,125.415539 95.0877904,124.207921 L95.0877904,124.207921 Z M94.111386,133.831679 L93.5709081,133.511182 C94.6943934,132.466469 94.1680919,130.49922 96.6897316,130.102583 C95.7859816,131.409361 94.9477978,132.62052 94.111386,133.831679 L94.111386,133.831679 Z M89.6759228,157.080978 C88.7136949,157.210239 87.9127243,158.161106 86.6368419,158.996876 C85.6356287,158.187666 84.140011,156.980048 82.6692022,155.790138 C85.9280184,155.381106 89.3853051,153.852991 93.147386,155.505055 C93.2182684,156.45238 92.3871728,156.725068 89.6759228,157.080978 L89.6759228,157.080978 Z M87.6221066,197.481284 C89.2417684,196.466673 90.8596581,195.44852 92.7823419,194.244443 C91.9034007,196.422405 90.6735919,197.815946 87.6221066,197.481284 L87.6221066,197.481284 Z M86.8370846,221.515004 C86.3107831,221.867373 85.646261,222.081628 85.0384449,222.356087 C84.8080772,222.281717 84.5759375,222.207348 84.3437978,222.132978 C84.8063051,221.468966 85.1997022,220.757144 85.7862537,220.179896 C85.9085257,220.063029 86.7856949,220.403004 87.241114,220.627883 C87.3119963,220.665068 87.1082096,221.332622 86.8370846,221.515004 L86.8370846,221.515004 Z M80.553364,167.834443 C81.9444301,165.916775 81.9444301,165.916775 83.7661066,167.698099 C82.5965478,167.747679 81.6715331,167.786634 80.553364,167.834443 L80.553364,167.834443 Z M78.9531949,238.170214 C79.8977022,237.307883 80.4966581,236.758966 81.4447096,235.893093 C81.6945699,237.038736 81.820386,237.612443 82.0206287,238.526125 C81.0619449,238.416341 80.3212243,238.329577 78.9531949,238.170214 L78.9531949,238.170214 Z M78.1362757,272.851157 C77.2626507,272.620966 76.7611581,272.488163 76.2596654,272.355361 C76.548511,271.650622 76.8355846,270.942341 77.179364,270.103029 C77.9271728,270.581118 78.2886728,270.81131 78.7848493,271.130036 C78.233739,271.370851 77.7411066,271.586876 77.1740478,271.838316 C77.4097316,272.087985 77.6347831,272.323488 78.1362757,272.851157 L78.1362757,272.851157 Z M75.6819743,225.033386 C76.7328051,223.940864 77.5585846,223.082074 78.717511,221.877997 C78.5775184,223.241437 78.4711949,224.261361 78.3577831,225.369819 C77.693261,225.286596 76.8320404,225.176813 75.6819743,225.033386 L75.6819743,225.033386 Z M74.7321507,230.003743 C73.2064081,229.908125 71.6806654,229.812507 70.0361949,229.709806 C70.4295919,229.16266 70.6847684,228.804978 70.945261,228.441985 C72.2016507,228.874036 73.475761,229.311399 74.7480993,229.750532 C74.7427831,229.835526 74.7374669,229.918749 74.7321507,230.003743 L74.7321507,230.003743 Z M80.9290404,213.364469 C79.5220257,213.62122 78.4835993,213.810685 77.060636,214.070978 C77.3813787,213.070532 77.6276949,212.300278 78.0069154,211.108596 C79.1268566,211.970927 79.9473199,212.604838 80.9290404,213.364469 L80.9290404,213.364469 Z M75.9814522,161.088074 C75.8308272,158.55066 75.7847537,156.140736 75.5029963,153.752061 C75.3523713,152.484239 76.0860037,152.108851 77.3122684,152.135411 C79.5397463,152.188532 81.7619081,152.354978 83.7377537,152.46122 C83.3301801,152.652456 82.4299743,152.836609 82.0401213,153.307615 C81.1966213,154.320456 80.2627463,154.003501 79.1002757,153.973399 C78.3701875,153.953921 77.0039301,154.917182 76.9755772,155.471411 C76.9170993,156.714443 77.4646654,157.989348 77.8669228,159.228838 C78.0760257,159.875144 78.4995478,160.470099 78.8238346,161.088074 L75.9814522,161.088074 Z M73.927636,170.839322 C73.1231213,171.319182 71.6221875,171.866329 70.9275404,170.492265 C72.1520331,169.707845 73.3499449,168.942902 74.5478566,168.174418 L75.3364228,168.48252 C74.889864,169.293501 74.6896213,170.382482 73.927636,170.839322 L73.927636,170.839322 Z M91.5560772,147.191615 L90.9429449,147.331501 C90.0941287,146.230125 88.749136,145.196036 88.5187684,144.014978 C88.1856213,142.308023 90.0905846,143.682087 90.8011801,143.207539 C90.1667831,144.048622 90.3244963,144.496609 91.2902684,145.116354 C91.7563199,145.413832 91.490511,146.476252 91.5560772,147.191615 L91.5560772,147.191615 Z M91.3965919,116.096341 L91.3965919,119.002061 L93.8615257,119.002061 C92.8904375,120.016673 92.0947831,120.847131 91.2282463,121.750189 C90.2394375,120.129997 89.2967022,118.584176 88.3752316,117.075539 C89.4012537,116.742647 90.4308199,116.409755 91.3965919,116.096341 L91.3965919,116.096341 Z M91.7279669,96.6593605 C93.6630551,96.615093 95.9082537,95.1755134 97.6413272,97.5146089 C95.4616949,97.1994242 93.5939449,96.9302777 91.7279669,96.6593605 L91.7279669,96.6593605 Z M96.3016507,60.6309146 C97.1150257,59.8730548 97.6324669,59.3896535 98.5468493,58.5397172 C98.9278419,59.4888127 99.200739,60.1634497 99.5675551,61.0771312 C98.4068566,60.9177682 97.5261434,60.7973605 96.3016507,60.6309146 L96.3016507,60.6309146 Z M64.4790184,245.31145 C63.6975404,244.22601 63.0649154,243.351284 62.4340625,242.474787 C62.5581066,242.402189 62.6821507,242.327819 62.8079669,242.25522 C63.655011,242.715603 64.5020551,243.175985 65.4536507,243.6948 C65.1825257,244.144558 64.9060846,244.603169 64.4790184,245.31145 L64.4790184,245.31145 Z M54.8425625,268.969781 C54.5820699,268.895411 54.3215772,268.819271 54.0628566,268.743131 C54.3091728,267.202622 54.557261,265.662112 54.7911728,264.201284 C55.4929081,264.031297 56.302739,263.832978 57.1905404,263.616953 C58.4008566,266.083539 54.7185184,266.86973 54.8425625,268.969781 L54.8425625,268.969781 Z M61.1581801,219.264443 C60.9100919,218.642927 60.6301066,218.086927 60.4723934,217.504367 C60.3040478,216.882851 60.5379596,215.985106 60.0967169,215.650443 C58.7233713,214.609271 60.2260772,214.182532 60.670864,213.741628 C61.8510551,212.574736 63.2279449,211.535335 64.5835699,210.495934 C64.8848199,210.265743 65.4199816,210.237411 66.3272757,209.978889 C66.6745993,209.318418 67.238114,208.247144 67.7998566,207.174099 C67.9274449,207.22545 68.0550331,207.273259 68.1808493,207.322838 C68.2464154,207.822176 68.4218493,208.328596 68.354511,208.813768 C68.2198346,209.798278 68.1152831,210.710189 66.5328346,211.120991 C65.462511,211.39722 64.587114,212.268405 63.7648787,212.981997 C63.6567831,213.075845 64.3726949,214.182532 64.7129301,214.184303 C65.9675478,214.189615 67.2221654,213.929322 68.4767831,213.769959 C68.5848787,213.846099 68.6912022,213.92401 68.7975257,214.001921 C66.3698051,215.673462 63.9420846,217.346775 61.1581801,219.264443 L61.1581801,219.264443 Z M58.2484596,208.838558 C58.0446728,208.597743 57.840886,208.355157 57.6370993,208.114341 L60.9242684,206.34187 C61.0748934,206.51894 61.2255184,206.697781 61.3761434,206.876622 C60.3324007,207.531781 59.2904301,208.185169 58.2484596,208.838558 L58.2484596,208.838558 Z M57.2809154,196.470214 C59.736989,196.987259 62.1912904,197.504303 64.647364,198.023118 C64.6083787,198.111654 64.5676213,198.200189 64.526864,198.290494 C62.749489,198.168316 60.9543934,198.136443 59.2035993,197.885004 C58.4026287,197.771679 57.6920331,197.224532 56.9406801,196.873934 L57.2809154,196.470214 Z M78.1823493,126.534622 C78.7600404,124.423946 80.4470404,124.082201 83.8653419,125.558966 C81.6857096,125.932583 79.9597243,126.230061 78.1823493,126.534622 L78.1823493,126.534622 Z M92.9276507,79.0497427 C93.1615625,80.2060102 93.3671213,81.2206217 93.6152096,82.4388637 C90.7409301,80.7195134 90.6381507,80.1741376 92.9276507,79.0497427 L92.9276507,79.0497427 Z M125.398857,36.2572204 C124.975335,38.3395643 124.565989,40.3510803 124.105254,42.612265 C120.743658,40.0819338 120.890739,39.4568764 125.398857,36.2572204 L125.398857,36.2572204 Z M153.657879,105.397768 C154.262151,106.460189 154.978063,107.618227 155.538033,108.825845 C155.619548,109.002915 155.002871,109.47038 154.616563,109.697029 C154.223165,109.92722 153.714585,110.02638 153.04829,110.253029 C153.143982,109.695259 153.243217,109.107386 153.384982,108.280469 L149.169254,108.280469 C150.634746,107.340227 152.061254,106.423004 153.657879,105.397768 L153.657879,105.397768 Z M236.721364,234.122392 C234.321996,234.303004 231.919085,233.424736 229.558702,234.175513 C228.33421,234.565068 227.15579,235.046698 226.050026,235.452189 C226.40621,234.552673 226.969724,233.481399 227.214268,232.362316 C227.324136,231.86829 226.788974,231.278647 226.546202,230.733271 C225.922438,230.965233 225.277408,231.165322 224.680224,231.439781 C223.822548,231.829335 223.048158,232.37294 222.14618,232.654482 C221.683673,232.799679 220.87207,232.295029 220.480445,232.47387 C219.280761,233.013934 218.206893,233.745233 217.101129,234.39331 C217.039107,234.276443 216.932783,234.072813 216.893798,233.996673 C216.108776,234.54559 215.327298,235.092736 214.435952,235.719564 C213.877754,234.170201 214.91618,232.116189 212.330746,231.521233 C213.487901,230.056864 214.588349,228.665093 215.823474,227.101564 C211.793813,226.517233 207.558592,228.066596 202.518857,231.678825 C202.651761,230.758061 202.772261,229.916978 202.919342,228.888201 C200.789327,229.164431 199.063342,229.538048 197.612026,230.770456 C196.263489,231.912558 194.629651,232.833322 193.093276,233.872724 C192.793798,232.619068 192.483688,231.384889 192.20193,230.14894 C191.895364,228.792583 190.029386,227.200724 188.811982,227.563717 C187.240165,228.029411 187.458129,229.268902 187.610526,230.428711 C187.881651,232.468558 187.688496,234.581004 188.27682,236.544711 C188.946658,238.772252 187.475849,239.009526 185.409629,239.245029 C185.55671,238.411029 185.808342,237.639004 185.80657,236.868749 C185.799482,234.982953 185.744548,233.143195 183.097092,232.163997 C182.255364,231.852354 181.70071,230.924507 181.149599,230.209144 C180.772151,229.720431 180.630386,229.105997 180.380526,228.549997 C179.733724,227.112189 179.083379,225.67615 178.434805,224.238341 C179.948143,225.711564 180.974165,227.299883 182.188026,228.78373 C182.74268,229.460138 183.573776,230.074571 184.443857,230.474749 C185.46279,230.940443 186.922967,229.904583 186.46046,229.022775 C185.305077,226.805857 183.94768,224.657997 182.79407,222.69429 C184.126658,223.188316 185.893401,223.841704 187.654827,224.503946 C190.226085,225.468978 192.728232,227.018341 195.987048,224.94308 C194.347893,223.572558 192.792026,222.272864 190.94554,220.728813 C193.580592,221.120138 195.559982,222.235679 197.892011,221.739883 C199.600276,221.376889 202.299121,221.538023 202.873268,220.695169 C204.528371,218.263997 205.612871,220.576532 206.863945,220.686316 C207.953761,220.781934 208.999276,221.398138 210.074915,221.414074 C211.157643,221.431781 212.414033,220.613717 211.84343,219.785029 C210.780195,218.24629 210.032386,216.360494 207.500114,215.761997 C206.568011,215.542431 205.777673,214.919144 204.618746,214.324189 C209.399761,214.288775 209.399761,214.288775 209.724048,212.213513 C210.475401,212.30559 211.239158,212.523386 211.960386,212.450787 C212.722371,212.372876 213.425879,211.884163 214.187864,211.811564 C217.907415,211.453883 218.924577,210.48708 218.423085,207.779679 C217.643379,207.666354 216.909746,207.556571 216.04321,207.430851 C217.843621,205.454749 221.59507,205.840762 222.408445,203.211271 C219.952371,201.732736 214.65746,201.989488 211.209033,203.767271 C211.16296,203.671654 211.12043,203.581348 211.090305,203.517603 C208.584614,204.119641 206.284482,204.672099 203.987893,205.226329 C202.21229,205.653068 200.43846,206.081577 198.124151,206.639348 C200.571364,205.389233 202.497592,204.275462 204.565585,203.383029 C206.58396,202.511845 208.492467,201.578685 209.670886,199.937246 C210.034158,199.430825 210.069599,198.765042 210.253893,198.171857 C209.378496,198.129361 208.313489,197.798239 207.654283,198.088634 C203.968401,199.712367 200.348085,201.4388 196.775614,203.225437 C195.053173,204.085997 193.504393,205.174978 191.843974,206.120532 C190.837445,206.692469 189.768893,207.191806 188.728695,207.724787 L188.340614,207.283883 C189.247908,206.171883 190.151658,205.059883 191.129835,203.861118 C187.702673,202.991704 182.538893,204.245361 180.222813,206.299373 C180.081048,206.049704 179.944599,205.807118 179.831188,205.6088 C178.883136,206.101055 177.966982,206.577373 176.770842,207.20066 C176.770842,205.201539 176.923239,203.636239 176.728313,202.101042 C176.51921,200.456061 176.359724,198.754418 174.068452,197.844278 C172.66321,197.284736 172.26804,197.736265 172.152857,198.688902 C171.973879,200.160354 171.915401,201.638889 171.842746,202.632252 C168.846195,202.857131 165.973688,203.071386 162.968276,203.296265 C163.799371,200.408252 164.630467,197.518469 165.518268,194.428596 C162.934607,194.710138 161.042048,194.91731 158.621415,195.181144 C160.315504,193.980609 161.695938,193.001411 163.218136,191.921284 C163.925188,193.506061 165.539533,192.8208 166.71618,193.160775 C168.612283,193.707921 168.481151,192.94829 168.484695,191.974405 C168.486467,191.476838 168.484695,190.979271 168.484695,190.127564 C169.944871,191.119157 170.857482,191.813271 171.872871,192.385208 C172.220195,192.579985 172.911298,192.606545 173.288746,192.452494 C173.604173,192.325004 173.882386,191.797335 173.830996,191.483921 C173.744165,190.936775 173.504938,190.357755 173.129261,189.900915 C171.539724,187.965539 169.397305,186.559603 166.195195,185.638838 C167.107805,185.44229 167.657143,185.16429 167.935357,185.288239 C171.091393,186.711883 174.463621,187.561819 178.014827,187.961997 C179.778026,188.160316 181.555401,188.406443 183.323915,188.388736 C183.903379,188.383424 184.945349,187.611399 184.931173,187.207679 C184.909908,186.664074 184.18868,186.017768 183.564915,185.638838 C182.788754,185.171373 181.807033,184.930558 180.493938,184.434762 C181.21871,184.275399 181.465026,184.156762 181.686533,184.183322 C184.022107,184.441845 186.331099,184.411743 188.484151,183.538787 C189.729908,183.034138 191.40982,182.970392 191.884732,181.527271 C191.914857,181.433424 192.620136,181.520189 193.001129,181.468838 C194.427636,181.274061 195.847055,181.056265 197.27179,180.849093 C197.014842,180.023946 196.84118,179.175781 196.472592,178.387819 C196.251085,177.911501 195.730099,177.529029 195.207342,176.957093 C196.725996,177.608711 198.133011,178.269182 199.600276,178.823411 C200.527063,179.172239 201.810033,179.954889 202.439114,178.897781 C202.775805,178.329386 202.221151,176.958864 201.526504,176.514418 C199.766849,175.384711 197.700629,174.57373 195.55821,173.539641 C196.284754,173.144775 197.00421,172.781781 197.688224,172.37629 C199.187386,171.489169 200.752114,170.660482 202.127232,169.658265 C203.245401,168.845513 202.72796,167.554673 201.212849,167.427182 C198.303129,167.181055 195.811614,168.020367 193.724129,169.730864 C193.249217,170.120418 192.481915,170.269157 191.992827,170.469246 C192.113327,167.947768 192.267496,165.799908 192.299393,163.652048 C192.320658,162.355896 191.158188,161.58387 189.829143,161.679488 C189.24082,161.721985 188.618827,162.957934 188.315805,163.73173 C187.947217,164.670201 187.899371,165.695437 187.713305,166.681717 C186.759938,165.511284 186.254901,164.346163 185.62582,163.22531 C185.423805,162.867628 184.899276,162.632125 184.521827,162.339959 C184.224121,162.708265 183.724401,163.057093 183.665923,163.450189 C183.467452,164.797692 183.423151,166.159361 183.318599,167.506864 C182.558386,166.844622 181.83007,166.207169 181.316173,165.759182 C180.660511,164.664889 180.387614,163.40238 179.478548,162.885335 C178.363923,162.251424 176.737173,162.127475 175.301805,161.98759 C172.765989,161.741462 170.208908,161.652927 167.958393,161.514813 C168.897585,161.031411 170.024614,160.448851 171.149871,159.868061 C171.148099,159.63787 171.146327,159.407679 171.142783,159.177488 C170.015754,158.818036 168.796577,158.028303 167.774099,158.173501 C163.94468,158.715335 160.177283,159.563501 156.390393,160.300112 C155.979276,160.379794 155.575246,160.478953 155.169445,160.569259 C155.679798,159.629017 156.502033,159.119055 157.095673,158.469208 C157.72121,157.783946 158.130555,156.967654 158.63382,156.208023 C157.652099,156.25229 156.656202,156.227501 155.693974,156.360303 C155.07021,156.447068 154.428724,156.684341 153.907739,156.987131 C152.614136,157.736138 151.386099,158.557743 150.133254,159.352787 C150.723349,158.343488 151.676717,157.617501 152.35896,156.749857 C152.72932,156.278851 152.638945,155.565259 152.755901,154.96145 C151.864555,154.924265 150.97321,154.849896 150.083636,154.86229 C149.511261,154.871144 148.940658,155.007488 148.368283,155.085399 C148.492327,155.133208 148.614599,155.177475 148.736871,155.223513 C147.25543,156.42759 145.775761,157.635208 144.296092,158.841055 C144.149011,158.745437 144.003702,158.648048 143.856621,158.552431 C144.494563,157.541361 145.719055,156.480711 145.598555,155.536927 C145.485143,154.637411 143.964717,153.860074 143.332092,153.272201 C145.183893,153.162418 147.303276,153.181896 149.334055,152.847233 C150.236033,152.700265 150.962577,151.837934 151.768864,151.301411 C150.877518,150.725934 150.01807,150.111501 149.075335,149.601539 C148.77054,149.435093 148.20171,149.628099 147.834893,149.500609 C147.43618,149.360724 146.934688,149.091577 146.817732,148.790558 C146.043342,146.793208 145.361099,144.771068 144.616835,142.672787 C147.161511,144.413386 148.417901,147.536902 152.708055,147.322647 C152.956143,143.515641 149.204695,141.913157 146.569643,139.338558 C149.550246,139.687386 152.080746,140.057462 154.632511,140.257552 C156.471908,140.402749 158.339658,140.360252 160.193232,140.312443 C160.531695,140.30359 161.146599,139.837896 161.120018,139.628953 C161.070401,139.26773 160.701813,138.740061 160.322592,138.63559 C158.469018,138.123857 156.578232,137.688265 154.67504,137.307564 C153.354857,137.04373 151.995688,136.914469 150.705629,136.730316 C153.266254,135.45187 155.869408,135.22345 158.561165,136.229208 C159.803379,136.694902 161.042048,137.213717 162.349827,137.489946 C163.145482,137.658163 164.189224,137.585564 164.898048,137.277462 C165.282585,137.109246 165.351695,136.207959 165.27904,135.664354 C165.229423,135.281883 164.696033,134.943679 164.141379,134.316851 C165.438526,134.4408 166.356452,134.538189 167.276151,134.614329 C169.921835,134.835666 172.402717,136.08401 175.156496,135.513845 C175.588879,135.423539 176.207327,134.892329 176.193151,134.584227 C176.10632,132.907373 172.751813,130.754201 170.543827,130.789615 C168.015099,130.828571 165.486371,130.798469 163.010805,130.798469 C163.75507,129.716571 164.708438,128.677169 165.179805,127.506736 C165.406629,126.943654 164.866151,126.060074 164.389467,125.477513 C164.226438,125.277424 163.009033,125.355335 162.603232,125.633335 C159.941599,127.450074 157.311864,129.307539 154.791996,131.253539 C153.602945,132.174303 151.104342,133.358902 150.012754,133.240265 C151.768864,131.662571 154.54568,130.665666 154.866423,127.568711 C152.440474,128.083985 150.384886,128.609883 148.283224,128.935692 C146.934688,129.144634 145.92993,128.50187 144.949982,127.46601 C145.763357,127.287169 146.22232,127.103017 146.684827,127.099475 C148.393092,127.088851 150.106673,127.207488 151.807849,127.126036 C152.348327,127.101246 153.067783,126.690443 153.307011,126.293806 C153.493077,125.985704 153.218408,125.296902 152.865768,125.010048 C152.36782,124.602787 151.643048,124.257501 150.953717,124.153029 C149.22596,123.894507 147.464533,123.784724 145.655261,123.609424 C146.858489,122.695743 147.811857,121.403131 149.041665,121.192418 C150.399063,120.958685 152.011636,121.716545 153.510798,122.049437 C153.64193,122.077768 153.76243,122.217654 153.875842,122.207029 C154.643143,122.137972 155.408673,122.044125 156.175974,121.957361 C155.807386,121.459794 155.50082,120.91973 155.052489,120.475284 C154.643143,120.069794 154.07254,119.775857 153.59054,119.414634 C152.731092,118.77187 151.884048,118.116711 150.764107,117.261462 C153.966217,117.050749 156.656202,116.948048 159.323151,116.675361 C162.114143,116.390278 164.944121,116.048532 166.932371,113.502265 C164.302636,113.063131 161.949342,112.668265 159.401121,112.243297 C160.73371,111.271182 161.954658,110.846214 163.569004,111.354405 C165.380048,111.9228 167.215901,112.475259 169.097827,112.836482 C169.746401,112.960431 170.566864,112.485883 171.309357,112.284023 C170.768879,111.535017 170.446364,110.433641 169.648938,110.10429 C167.253114,109.114469 164.671224,108.425666 161.929849,107.545628 C162.959415,106.757666 164.031511,105.985641 165.034496,105.160494 C166.822504,103.685501 168.419129,102.086558 169.030489,100.007755 C169.331739,98.9860611 168.681393,98.4282904 167.513607,98.8992968 C165.817746,99.584558 164.12543,100.360125 162.67057,101.335781 C161.120018,102.375182 159.845908,103.690813 158.041952,105.238405 C158.492055,102.612456 158.968739,100.390227 159.202651,98.1520611 C159.284165,97.3729529 158.764952,96.5513478 158.518636,95.7509911 C157.556408,95.9493096 156.57646,96.1086726 155.642585,96.3742777 C155.382092,96.4468764 155.183621,96.8116408 155.077298,97.0772459 C154.538592,98.4389146 154.077857,99.8218318 153.493077,101.169335 C153.374349,101.445564 152.865768,101.643883 152.490092,101.799704 C152.073658,101.973233 151.517232,101.967921 151.166364,102.1928 C148.832563,103.687271 145.846643,104.553144 144.358114,106.874532 C144.338621,106.901093 144.127746,106.846201 144.048004,106.835577 C144.048004,105.936061 144.411276,104.884265 143.955857,104.199004 C143.376393,103.326048 143.505754,103.05159 144.436085,102.600061 C146.776974,101.461501 148.008555,97.5323159 144.918085,95.8289019 C143.314371,94.9453223 141.724835,94.0475771 140.360349,93.2826344 C141.487379,92.445093 142.71896,91.6358828 143.775107,90.6956408 C144.216349,90.3025452 144.418364,89.6385325 144.485702,89.0789911 C144.599114,88.138749 144.517599,87.1825707 144.517599,85.8510038 C143.546511,85.619042 142.063298,85.2666726 140.232761,84.8310803 C141.684077,84.489335 143.027298,84.436214 143.961173,83.8996917 C145.905121,82.785921 147.799452,81.5358064 149.344688,80.0802904 C149.807195,79.6429274 149.427974,78.9594369 150.656011,79.4056535 C151.210665,79.6057427 152.080746,79.2586854 152.796658,79.1223414 C153.299923,79.0249529 153.909511,78.6389401 154.256835,78.7682013 C156.785563,79.7155261 158.639136,78.8319465 160.434232,77.4525707 C160.102857,77.0736408 159.78743,76.7637682 159.544658,76.4202522 C159.326695,76.113921 159.192018,75.7668637 159.020129,75.4392841 C159.491496,75.3489783 159.95932,75.2250293 160.437776,75.1789911 C160.701813,75.155972 160.985342,75.2586726 161.256467,75.3117936 C161.458482,75.3525197 161.692393,75.487093 161.850107,75.4392841 C162.684746,75.1949274 163.499893,74.9045325 164.322129,74.6300739 C163.825952,74.0475134 163.482173,73.174558 162.803474,72.931972 C160.104629,71.9669401 157.223261,71.7951822 154.061908,72.1829656 C154.432268,71.7473732 154.634283,71.405628 154.94971,71.163042 C157.021246,69.5640994 159.165438,67.9988 159.739585,65.5623159 C159.851224,65.0913096 159.748445,64.4875006 159.456055,64.089093 C159.277077,63.846507 158.406996,63.6765197 158.080938,63.8217172 C156.463048,64.5477045 154.609474,65.1603669 153.427511,66.2440357 C151.760004,67.7721503 150.609938,69.6791949 149.238364,71.423335 C149.117864,71.3790675 148.997364,71.3348 148.876864,71.2887618 C149.229504,70.0173987 149.582143,68.7460357 149.945415,67.4410293 C148.83079,67.3312459 148.035136,67.253335 147.01443,67.1541758 C147.414915,66.715042 147.666548,66.383921 147.981974,66.1006089 C149.654798,64.5937427 151.467614,63.1754115 152.957915,61.5587618 C153.431055,61.0434879 153.377893,59.8872204 153.007533,59.2409146 C152.442246,58.2634879 151.325849,58.6601248 150.549688,59.2214369 C148.871548,60.4325962 147.29796,61.7464561 145.593239,62.9328255 C145.12896,63.255093 144.186224,63.5508 143.739665,63.3772713 C141.673445,62.5839975 140.158335,63.0213605 139.440651,64.9000739 C138.935614,66.2263287 138.604239,67.596851 138.180717,68.9886217 C135.56693,67.4339465 133.284518,65.9943669 129.632305,66.4335006 C126.04743,66.8620102 124.138923,68.6946854 121.977011,70.5326726 C121.300085,69.0523669 122.05321,67.6977809 124.326761,66.6034879 C127.723798,64.9691312 131.205893,63.4498701 134.569261,61.7712459 C136.277526,60.9177682 137.852886,59.8677427 139.373313,58.7982395 C139.711776,58.5574242 139.807467,57.7340484 139.564695,57.3958446 C139.332555,57.0753478 138.403996,56.790265 137.969842,56.9177554 C136.015261,57.4914624 134.122702,58.2085962 132.217739,58.8938573 C130.982614,59.3365325 129.76521,59.812851 128.540717,60.2732331 C128.52654,59.4410038 128.92171,58.9540611 129.045754,58.4263924 C129.198151,57.7747745 129.123724,57.0895134 129.146761,56.4184178 C128.37946,56.5087236 127.463305,56.4131057 126.871438,56.7282904 C125.145452,57.6402013 123.548827,58.7150166 121.381599,60.0465834 C122.340283,58.2085962 123.233401,56.772558 123.835901,55.2603796 C124.316129,54.0509911 125.301393,53.4861376 126.648158,53.2754242 C128.505276,52.9850293 129.603952,52.3971567 128.531857,50.7964433 C129.409026,50.4104306 130.775283,50.0616025 130.757563,49.7712076 C130.665415,48.2767363 132.178754,48.4414115 133.075415,48.1297682 C134.652548,47.5826217 136.157026,45.7446344 135.942607,44.3209911 C136.284614,44.2430803 136.706364,44.244851 136.940276,44.073093 C137.502018,43.6605197 137.973386,43.1647236 138.480195,42.7043414 C137.893643,42.3732204 137.338989,41.8260739 136.71168,41.760558 C135.637813,41.6490038 134.47357,41.7074369 133.424511,41.9340866 C131.682577,42.3094752 130.002665,42.8743287 128.20757,43.3842904 C128.491099,42.6512204 128.92171,41.9270038 129.035121,41.1709146 C129.43029,38.5113223 131.928893,35.7844433 128.071121,33.2700484 C126.928143,32.5245834 126.221092,32.2501248 125.193298,32.7175898 C123.752614,33.372749 122.450151,34.2333096 121.087438,35.005335 L120.568224,34.8264943 C121.257555,33.8207363 121.686393,32.5564561 122.701783,31.8800484 C123.814636,31.1363541 125.434298,30.8406471 126.89093,30.5201503 C129.378901,29.9694624 131.928893,29.6082395 134.41332,29.0540102 C135.473011,28.8167363 135.742364,28.2678191 134.847474,27.4409019 C133.488305,26.1854752 130.863886,25.760507 128.209342,26.523679 C126.517026,27.0106217 124.814077,27.4745452 123.116445,27.949093 C122.999489,27.8162904 122.882533,27.6870293 122.765577,27.5542268 C123.157202,27.1788382 123.67996,26.8494879 123.913871,26.4156662 C124.488018,25.3514752 125.524673,24.1208382 125.248232,23.1788255 C124.996599,22.3218064 123.337952,21.6453987 122.150673,21.1035643 C121.349702,20.7388 120.598349,20.9247236 119.978129,21.8224688 C119.113364,23.0761248 117.777232,24.1119847 116.641342,25.239921 C116.33832,24.039386 116.272754,23.1115389 116.520842,22.2403541 L113.907055,0.0995133758 L111.839063,0.0995133758 L110.097129,18.9663287 C108.374688,20.147386 110.187504,21.7959083 109.778158,23.7047236 C109.227048,23.5506726 109.182746,23.051335 108.88504,22.6901121 C106.487445,19.7755389 103.568864,17.3355134 99.5374301,15.9118701 C98.5929228,15.5772076 97.5633566,15.1734879 97.0423713,16.0942522 C96.6153051,16.8468 96.2396287,18.1535771 96.7127684,18.6139592 C98.4086287,20.2589401 100.405739,21.7179975 102.431202,23.1079975 C103.584813,23.8977299 105.016636,24.4147745 106.322643,25.0539975 C105.753813,25.2593987 105.294849,25.1088892 104.857151,25.1460739 C103.855938,25.2310675 102.865357,25.4081376 101.86946,25.5480229 C102.243364,26.3713987 101.846423,27.2673732 103.01421,28.0659592 C104.169592,28.8574624 104.644504,30.314749 105.415349,31.4798701 C105.271813,31.5878828 105.126504,31.6976662 104.981195,31.8074497 C102.691695,29.6861503 99.9609522,28.4555134 96.4664522,28.4909274 C94.9779228,28.5068637 94.7883125,28.8379847 95.0541213,29.983628 C95.5680184,32.1828382 97.8344816,33.0009019 99.5764154,34.2563287 C100.219673,34.7184815 100.795592,35.2443796 101.709974,35.9951567 C102.572967,36.2111822 103.992386,36.5635516 105.909754,37.0398701 C103.896695,37.2718318 101.674533,37.0292459 101.15532,37.6861758 C99.923739,39.2443924 98.6354522,38.5219465 97.4942463,38.1872841 C95.7133272,37.661386 95.2951213,38.601628 95.5591581,39.4586471 C95.9242022,40.648558 96.6560625,41.8738828 97.6324669,42.7981885 C99.3549081,44.4236917 99.742989,45.9093096 98.6460846,47.3081631 C97.935489,46.8212204 97.2674228,45.9978446 96.4558199,45.8862904 C94.651864,45.6401631 93.9448125,44.8061631 93.3316801,43.5312586 C92.725636,42.2722904 91.3735551,41.8260739 89.3764449,42.334265 C89.6635184,43.8924815 89.9470478,45.4259083 90.2961434,47.3223287 C88.2263787,46.959335 86.098136,46.5874879 83.3939743,46.1129401 C84.2551949,47.6375134 84.8240257,48.645042 85.6001875,50.0191057 C81.8983566,47.9526981 78.5775184,46.1731439 74.5159596,45.8632713 C73.8213125,45.8101503 72.4479669,46.3218828 72.449739,46.5662395 C72.4550551,47.3187873 72.8590846,48.1262268 73.3446287,48.7973223 C73.6068934,49.1567745 74.3352096,49.3214497 74.889864,49.5002904 C77.4008713,50.3095006 79.9260551,51.0903796 82.543386,51.9137554 C81.4216728,52.413093 78.988636,51.9757299 80.0802243,53.9376662 C80.3832463,54.483042 81.609511,54.7415643 82.4689596,55.0089401 C83.294739,55.2674624 84.2445625,55.2745452 85.0526213,55.5578573 C86.6740551,56.1244815 88.2582757,56.772558 89.8141434,57.4507363 C90.404239,57.7092586 90.8773787,58.144851 91.6588566,58.6742904 C89.351636,59.2444561 87.4643934,59.4569401 85.9652316,60.1988637 C85.2581801,60.5476917 83.3089154,61.0381758 84.1311507,62.2068382 C84.6308713,62.9168892 86.0715551,63.4498701 87.1578272,63.5490293 C88.6002831,63.6800611 90.1171654,63.3453987 91.5879743,63.1453096 C93.5496434,62.8779338 94.3009963,63.5136153 93.8420331,65.1267236 C92.5466581,65.1267236 91.2317904,65.011628 89.9647684,65.1674497 C89.170886,65.2648382 88.4514301,65.7641758 87.7000772,66.0846726 C88.2795404,66.7522268 88.6853419,67.7420484 89.472136,68.0271312 C91.8874522,68.9053987 94.4480772,69.512749 96.9519963,70.2263414 C95.5786507,70.5238191 94.0263272,70.7734879 92.663614,70.4636153 C90.6027096,69.9961503 88.6747096,69.1355898 86.7094963,68.4503287 C85.8695404,70.1289529 85.0154081,71.3932331 87.241114,72.3281631 C88.6552169,72.9213478 89.9364154,73.7234752 91.7758125,74.6973605 C92.3481875,75.8855006 89.8584449,75.8483159 89.411886,77.0541631 C87.6362831,75.1276408 86.0024449,73.3445452 84.3562022,71.5667618 C83.5268787,70.672558 82.7648934,69.7163796 81.8008934,68.9301885 C81.4234449,68.6220866 80.5728566,68.7053096 79.9366875,68.6096917 C79.860489,69.093093 79.5521507,69.6544051 79.7488493,70.0475006 C80.3903346,71.3312586 81.2019375,72.5583541 81.9727831,73.7978446 C82.2740331,74.2812459 82.6426213,74.7363159 82.9793125,75.2055516 C77.6099743,72.6256408 72.4426507,70.2068637 65.8417316,70.7593223 C66.4017022,73.3356917 69.6162169,73.4472459 70.7148934,75.1949274 C68.3491949,75.5862522 67.6545478,76.6168 68.9995404,77.9253478 C69.6303934,78.5397809 70.7662831,78.8036153 71.6647169,79.2374369 C72.6039081,79.6942777 74.498239,79.3489911 73.9170037,81.1373987 C73.8301728,81.4047745 74.7427831,81.9802522 75.3009816,82.2706471 C75.9034816,82.5858318 76.6335699,82.7328 77.6436434,83.063921 C76.8001434,83.2392204 76.3553566,83.3613987 75.8963934,83.4233732 C74.3582463,83.637628 72.722636,83.6429401 71.304989,84.0997809 C70.4207316,84.3848637 69.858989,85.3392713 69.1519375,85.9944306 C69.858989,86.4796025 70.5660404,87.3791185 71.2730919,87.3791185 C74.0640846,87.3826599 76.9295037,87.6978446 79.6248051,86.7611439 C80.0837684,86.6035516 80.523239,86.4052331 80.8971434,86.2547236 C80.2255331,87.4145325 79.5769596,88.5318446 78.928386,89.6509274 C79.167614,89.8598701 79.4050699,90.0705834 79.6442978,90.2795261 C80.9485331,89.9200739 82.3165625,89.665093 83.5410551,89.1710675 C84.8399743,88.6487108 86.0006728,87.8997045 87.2216213,87.2463159 C88.3132096,90.4955516 91.7191066,90.8727108 94.5880699,91.7492076 C93.3954743,92.1971949 92.0097243,92.6434115 90.7125772,93.2224306 C89.3534081,93.8333223 88.0810699,94.5717045 86.6651949,95.3083159 C87.6291949,95.9670166 88.2476434,96.390214 88.8660919,96.8134115 C88.6250919,97.0312076 88.3823199,97.2472331 88.1413199,97.4632586 C86.4472316,96.2060611 84.8063051,94.8975134 83.0413346,93.7129146 C81.8912684,92.9426599 80.5604522,92.3530166 79.3093787,91.681921 C78.7813051,92.5283159 78.2496875,93.3729401 77.7287022,94.2211057 C77.6400993,94.3645325 77.601114,94.5292076 77.5390919,94.6868 C76.576864,94.3999465 76.1905551,93.6084433 75.0139081,93.4242904 C73.5838566,93.2011822 72.3664522,92.1901121 70.9594375,91.7102522 C69.7508934,91.2959083 68.7089228,91.9475261 68.744364,92.8736025 C68.7798051,93.7571822 69.3823051,94.7169019 70.0344228,95.467679 C70.8779228,96.4397936 71.877364,97.4154497 73.0770478,98.058214 C74.1012978,98.6071312 75.4994522,98.685042 76.638886,98.9506471 C74.9359375,100.260966 73.4509522,101.287972 72.1449449,102.447781 C71.2589154,103.237513 71.306761,104.317641 72.1307684,105.091437 C72.4621434,105.40308 73.5271507,105.341106 74.2005331,105.222469 C74.951886,105.093208 75.6660257,104.749692 76.3411801,104.422112 C78.0015993,103.618214 77.9519816,103.820074 80.193636,104.083908 C82.2315037,104.324724 84.3969596,104.177755 86.4507757,103.915692 C88.5488934,103.648316 90.5796728,103.033883 93.1013125,102.467259 C92.0823787,103.421666 91.1963493,104.01131 90.7249816,104.77094 C90.375886,105.332252 90.5654963,106.116673 90.5158787,106.800163 L91.0457243,106.029908 C91.3895037,106.736418 91.731511,107.444698 92.1727537,108.353068 C90.9677537,108.563781 89.9683125,108.740851 88.9706434,108.912609 C87.4608493,109.172902 85.9049816,109.328724 84.4625257,109.743068 C83.9397684,109.891806 83.4187831,110.651437 83.4010625,111.143692 C83.3904301,111.428775 84.3437978,111.859055 84.9427537,112.004252 C85.7508125,112.2008 86.6368419,112.186634 87.4892022,112.264545 C86.2133199,112.956889 84.5493566,112.93387 83.6544669,113.603195 C82.300614,114.614265 81.6254596,114.084825 80.6933566,113.404876 C78.9354743,112.12466 77.2537904,110.750596 75.3452831,109.640367 C74.5478566,109.176443 73.2542537,109.284456 72.1857022,109.132176 C72.1378566,109.941386 72.088239,110.750596 72.029761,111.740418 C72.0864669,111.738647 71.3634669,111.887386 71.2695478,111.751042 C70.4083272,110.488532 69.3450919,109.234876 68.9658713,107.860813 C68.6362684,106.662048 68.0762978,105.877628 67.087489,104.949781 C65.6521213,103.600507 64.890136,103.991832 64.2380184,105.187055 C63.6975404,106.175106 63.5593199,107.313666 63.2438934,108.38494 C61.875864,106.904634 61.0305919,105.298609 59.9992537,103.777577 C59.6678787,103.288864 58.8403272,103.028571 58.2395993,102.663806 C57.8639228,103.171997 57.1515551,103.692583 57.1816801,104.183068 C57.2507904,105.305692 57.6477316,106.421233 57.9791066,107.527921 C58.1244154,108.013093 58.4327537,108.466392 58.6312243,108.857717 C56.2478051,108.271615 54.0699449,107.669577 51.8424669,107.233985 C51.2505993,107.118889 50.3309007,107.370329 49.8985184,107.726239 C49.6096728,107.965284 49.6947316,108.802825 49.9871213,109.172902 C51.5713419,111.179106 53.6978125,112.576189 56.7174007,112.903768 C57.2614228,112.962201 57.7593713,113.305717 58.3618713,113.553615 C56.0280699,114.403552 54.013239,114.963093 52.2535846,115.859068 C51.5234963,116.230915 51.3374301,117.318125 50.9032757,118.079526 C51.6369081,118.283157 52.356364,118.578864 53.109489,118.658545 C53.7190772,118.724061 54.3676507,118.481475 55.0038199,118.461997 C55.7658051,118.437208 56.5331066,118.504494 57.4598934,118.538138 C56.1556581,120.422163 55.157989,121.863513 54.1603199,123.304864 C54.4225846,123.503182 54.6848493,123.703271 54.947114,123.90159 C56.7138566,123.157896 58.4805993,122.415972 60.6832684,121.488125 C59.5792757,123.264138 59.917739,124.207921 61.4133566,124.20438 C62.4765919,124.202609 63.5362831,123.602341 64.5995184,123.26945 C64.4772463,123.235806 64.3532022,123.202163 64.2291581,123.166749 C65.5333934,121.736023 66.8376287,120.307068 68.4803272,118.504494 C68.4803272,119.239335 68.4909596,119.460673 68.4785551,119.680239 C68.4502022,120.179577 68.4094449,120.677144 68.3740037,121.176482 C68.9516949,120.949832 69.5222978,120.710787 70.1088493,120.501845 C70.642239,120.31238 71.1915772,120.158329 71.7320551,119.9848 C74.319261,119.159654 75.9548713,121.252622 78.2833566,121.307513 C76.277386,121.743106 74.2076213,121.723628 72.3664522,122.242443 C69.6445699,123.010927 66.5629596,123.697959 66.4690404,126.874596 C66.4584081,127.175615 65.5564301,127.683806 65.0443051,127.706825 C63.2775625,127.781195 61.4753787,127.520902 59.7334449,127.694431 C57.5165993,127.913997 54.9719228,126.98615 52.8135551,128.962252 C57.0062463,131.719233 62.0140846,130.146851 66.4158787,131.05345 C65.8984375,131.18094 65.340239,131.067615 64.890136,131.202189 C63.3732537,131.650176 61.2698199,131.852036 60.5415037,132.763946 C59.3329596,134.274354 57.3606581,134.557666 55.9252904,135.586443 C54.1372831,136.86666 52.2216875,138.031781 50.4407684,139.31908 C50.1040772,139.561666 50.1342022,140.145997 49.9959816,140.572736 C50.5010184,140.670125 51.0095993,140.864902 51.512864,140.854278 C55.3564596,140.776367 58.4504743,139.074724 61.7234669,137.551921 C61.514364,138.300927 61.3371581,138.94015 61.1174228,139.733424 C65.0159522,139.933513 67.6492316,138.026469 70.1832757,136.592201 C70.5057904,138.042405 70.642239,139.499692 71.2092978,140.829488 C71.4591581,141.41559 72.5436581,141.838787 73.3605772,142.120329 C73.5236066,142.176991 74.4291287,141.298724 74.5708934,140.774596 C74.8189816,139.862685 74.7799963,138.892341 74.7888566,137.946787 C74.799489,136.769271 74.9625184,135.929959 76.4847169,135.118978 C78.1681728,134.219462 80.4381801,134.006978 81.5882463,132.441679 C81.790261,132.16545 82.0188566,131.901615 82.2368199,131.632469 C82.4565551,131.78829 82.6780625,131.942341 82.8977978,132.098163 C81.7459596,133.10215 80.5923493,134.107908 79.1445772,135.373959 C79.4901287,135.837883 80.0961728,136.650634 80.6827243,137.438596 C78.4038566,139.765297 74.2111654,140.983539 74.0694007,144.774609 C77.5656728,145.112813 79.7346728,142.991513 82.5823713,142.003462 C82.9988051,143.319093 83.4116949,144.624099 83.8777463,146.099093 C80.8528419,147.967182 85.0916066,148.321322 85.4407022,149.737883 C85.0703419,149.695386 84.7442831,149.693615 84.4465772,149.621017 C80.7270257,148.710876 76.9862096,147.898125 73.0770478,148.675462 C72.5596066,148.778163 71.7178787,149.507692 71.7976213,149.644036 C72.4692316,150.79145 71.4343493,151.636074 71.2358787,152.615271 C70.8796949,154.384201 70.7857757,156.188545 70.6032537,157.787488 C67.8494743,155.687437 64.5552169,153.922048 59.9141949,153.895488 C60.3288566,154.950825 60.6513713,155.775972 61.0146434,156.702048 C56.7829669,154.711781 52.6221728,152.546214 47.3839669,153.330634 C47.6054743,155.595361 51.1903493,157.966329 54.0788051,158.842825 C56.5472831,159.590061 56.7422096,160.932252 57.1107978,162.72066 C56.2017316,162.515259 55.3972169,162.46745 54.7752243,162.168201 C52.6930551,161.160673 50.7207537,159.999093 48.6120037,159.03229 C47.7560993,158.639195 46.3508566,158.19829 45.7536728,158.506392 C45.098011,158.842825 45.035989,160.011488 44.8180257,160.834864 C44.7187904,161.210252 44.8623272,161.631679 44.8995404,162.056647 C44.1783125,161.849475 43.6413787,161.665322 43.0831801,161.539603 C41.4723787,161.176609 39.8722096,160.640087 38.2348272,160.535615 C35.9719081,160.392189 33.5264669,160.988915 32.3427316,158.591386 C32.1637537,158.224851 31.1377316,158.139857 30.5033346,157.925603 C30.3243566,158.446189 29.8990625,159.009271 30.0231066,159.476736 C30.2605625,160.385106 30.8099007,161.236813 31.2174743,162.08852 C29.1087243,161.688341 27.2817316,160.903921 25.1322243,161.362532 C23.315864,161.752087 21.3701434,161.81052 19.6370699,162.350583 C18.8928051,162.582545 18.2406875,163.625488 18.1113272,164.365641 C18.0085478,164.942889 18.7474963,165.615755 19.7841507,165.720227 C22.2579449,165.971666 24.7264228,166.263832 27.2303419,166.543603 C26.8528934,166.736609 26.3443125,166.918991 25.9633199,167.211157 C25.4706875,167.590087 24.7388272,168.061093 24.7423713,168.487832 C24.7476875,168.909259 25.4458787,169.550252 26.0005331,169.704303 C28.0047316,170.258532 30.035511,170.240825 32.0910993,169.656494 C34.5312243,168.960609 37.0315993,168.413462 39.5053934,167.8008 L39.8208199,168.308991 C38.0753419,169.31829 36.2802463,170.279781 34.6056507,171.36345 C33.9872022,171.761857 33.650511,172.45066 33.1844596,173.00666 C34.1077022,173.169564 35.1673934,173.656507 35.9311507,173.442252 C38.7469522,172.648978 41.1906213,171.397093 42.6738346,169.098724 C43.6590993,167.575921 44.0560404,167.545819 45.4772316,167.969017 C44.3626066,169.534316 43.077864,171.092532 42.1032316,172.772927 C41.1073346,174.483424 42.5515625,176.069972 44.9668787,176.135488 C45.5995037,176.154966 46.2321287,176.139029 47.1323346,176.139029 C45.4949522,177.187284 44.0276875,178.047845 42.6950993,179.032354 C42.3654963,179.276711 42.204239,180.176227 42.4239743,180.326736 C43.2727904,180.907526 44.3253934,181.720278 45.2699007,181.691946 C47.1571434,181.631743 49.0851434,181.212087 50.8766949,180.673794 C51.9700551,180.344443 52.8436801,179.519297 53.9972904,178.805704 C54.0912096,183.119131 54.8390184,185.753934 57.9472096,185.197934 C60.2544301,182.444494 57.0487757,178.715399 61.0890699,176.231106 C61.0075551,177.245717 60.8551581,178.093883 60.8905993,178.933195 C60.9295846,179.862813 61.5125919,180.417042 62.7317684,179.990303 C64.9450699,179.212966 65.9462831,177.599857 66.7171287,175.880507 C67.2186213,174.756112 67.6120184,173.598074 68.2446434,171.960176 C69.1926949,173.660048 70.372886,174.85173 70.3197243,176.011539 C70.2878272,176.749921 68.4307096,177.433411 67.2806434,178.217832 C68.6929743,179.262545 70.0078419,180.23466 71.4449816,181.29708 C69.3557243,181.058036 67.3143125,180.857946 65.2888493,180.579946 C64.1316949,180.420583 62.9089743,180.468392 62.8434081,181.525501 C62.8044228,182.143475 63.6638713,183.074864 64.4152243,183.390048 C65.7779375,183.961985 67.3621581,184.17801 69.198011,184.627768 C68.2605919,184.891603 67.5818934,185.121794 66.876614,185.277615 C64.0873934,185.893819 61.4470257,186.770316 59.347136,188.440087 C58.8527316,188.833182 58.3140257,189.853106 58.531989,190.054966 C59.1504375,190.633985 60.5131507,191.459131 60.9366728,191.262583 C63.0578272,190.26922 64.9681066,190.796889 66.8588934,191.342265 C66.8252243,192.703934 67.4613934,193.645946 69.2228199,193.539704 C71.6097831,193.394507 73.9772537,193.052762 76.3535846,192.79601 C76.3819375,192.944749 76.4120625,193.095259 76.4421875,193.245768 C75.223011,193.867284 73.7716949,194.317042 72.8378199,195.151042 C71.5973787,196.259501 70.3161801,195.97973 68.9906801,195.684023 C67.721886,195.400711 66.545239,194.835857 65.2729007,194.566711 C61.3229816,193.736252 57.3642022,192.925271 53.3717537,192.250634 C52.3829449,192.084189 51.2222463,192.383437 50.2121728,192.650813 C49.9445919,192.721641 49.9428199,193.470647 49.7620699,194.111641 C49.5511949,193.989462 49.0107169,193.844265 48.9380625,193.60345 C48.3479669,191.655679 45.8564522,192.620711 44.6425919,191.669845 C44.2491949,192.500303 43.862886,193.334303 43.4606287,194.162991 C43.4127831,194.26215 43.288739,194.33652 42.8616728,194.752634 C41.8551434,193.716775 40.9850625,192.687997 39.9324596,191.800876 C39.5142537,191.448507 38.6601213,191.216545 38.078886,191.296227 C37.6908051,191.349348 37.0953934,192.108978 37.1822243,192.450724 C37.4568934,193.52731 38.0381287,194.552545 38.438614,195.613195 C38.5520257,195.914214 38.4563346,196.266583 38.4563346,196.735819 C36.7551581,195.790265 35.395989,195.034176 33.9925184,194.255068 C33.7958199,194.61452 33.6469669,194.883666 33.5814007,195.004074 C28.9970846,193.045679 24.4039081,191.825666 19.1692463,192.656125 C20.5319596,195.418418 26.8369449,198.780978 32.0343934,199.659246 C31.8890846,200.810201 30.5919375,202.161246 32.7910625,202.943896 C32.6386654,203.220125 32.5748713,203.629157 32.3143787,203.747794 C31.7278272,204.013399 30.9250846,204.013399 30.4218199,204.340978 C28.7224154,205.444125 27.1151581,206.642889 25.6921949,207.648647 C25.1481728,209.235195 24.492511,210.864239 26.2344449,212.086023 C28.4264816,211.230775 31.330886,211.49815 32.6120846,209.313106 C32.7556213,209.561004 32.8938419,209.801819 32.9345993,209.869106 C33.7337978,209.330813 34.5259081,208.799603 35.4013051,208.213501 C35.6157243,208.433068 35.8319154,208.656176 35.8283713,208.650864 C36.9784375,208.142673 38.018636,207.68229 39.0588346,207.221908 C38.9595993,208.521603 38.229511,209.488405 38.199386,210.471144 C38.1763493,211.260876 38.9968125,212.070087 39.4433713,212.870443 C40.0901728,212.60838 40.8911434,212.463182 41.3518787,212.055921 C42.4594154,211.080265 43.4074669,209.982431 44.4193125,208.934176 C44.2881801,210.348966 45.4134375,212.10373 42.8280037,212.640252 C43.0955846,212.873985 43.2940551,213.045743 43.2355772,212.996163 C41.7629963,213.773501 40.3931949,214.495946 38.9489669,215.257348 C39.6312096,216.735883 37.6163787,216.813794 36.693136,217.649564 C37.175136,217.831946 37.6039743,217.99308 38.3287463,218.265768 C37.8502904,218.492418 37.474614,218.673029 37.1964007,218.805832 C38.3712757,219.259131 39.3866654,219.650456 40.4002831,220.041781 C40.336489,220.100214 40.2726949,220.158647 40.2106728,220.218851 L42.0376654,220.218851 C42.0465257,220.332176 42.055386,220.445501 42.0642463,220.558825 C43.411011,219.831068 44.7560037,219.101539 46.1577022,218.343679 C46.1949154,218.382634 46.3065551,218.49773 46.3437684,218.536685 C47.2776434,218.198482 48.0945625,217.901004 48.6244081,217.709768 C50.1111654,216.52694 51.4969154,215.425564 52.6841949,214.478239 C53.3097316,216.066558 53.8502096,217.553946 54.4810625,219.016545 C55.218239,220.728813 56.1166728,222.345462 58.8385551,222.262239 C58.4823713,224.220634 59.1274007,224.702265 61.3442463,224.679246 C63.2545257,224.659768 64.2220699,223.505271 65.2729007,222.627004 C67.1902684,221.02629 68.8028419,219.184762 70.1655551,217.819552 C70.4738934,218.681883 70.9027316,219.880647 71.3687831,221.187424 C69.5240699,223.043118 67.3143125,225.222851 65.1807537,227.450392 C64.8352022,227.809845 64.5640772,228.440214 64.6969816,228.851017 C65.6255404,231.735488 68.081614,233.247666 71.7072463,233.368074 C73.3481728,233.424736 74.9837831,233.589411 77.0694963,233.734609 C76.2809301,233.961259 75.7794375,233.978966 75.5597022,234.189679 C74.3848272,235.324698 73.2755184,236.505755 72.1520331,237.674418 C70.9098199,238.965259 70.0822684,238.915679 69.0084007,237.488494 C68.9003051,237.343297 68.8223346,237.093628 68.685886,237.070609 C65.6485772,236.56773 63.7701949,233.916991 60.1817757,234.232176 C58.1031507,234.412787 55.7746654,233.486711 54.826614,235.831118 C54.2701875,235.425628 53.8307169,235.082112 53.3646654,234.766927 C51.8832243,233.764711 50.400011,232.764265 48.9026213,231.777985 C47.9970993,231.181259 47.1181581,230.533182 46.1116287,230.078112 C45.6916507,229.888647 44.6851213,229.975411 44.463614,230.235704 C44.1676801,230.580991 44.1588199,231.31052 44.4139963,231.707157 C44.885364,232.436685 45.7536728,232.990915 46.2533934,233.71159 C47.8110331,235.96038 50.1785037,237.481411 52.6965993,238.942239 C53.7243934,239.540736 54.406636,240.53587 55.5850551,241.683284 C53.5950331,240.596074 52.1880184,239.708953 50.6463272,239.025462 C49.3084228,238.430507 47.8322978,237.899297 46.5351507,239.262736 C46.2976949,239.510634 45.5941875,239.657603 45.1990184,239.569068 C44.4919669,239.413246 43.8735184,238.839539 43.1859596,238.797042 C39.886386,238.596953 38.619364,236.495131 37.1574154,234.598711 C36.5956728,233.870953 36.2784743,233.015704 35.849636,232.218889 C35.7450846,232.263157 35.6423051,232.307424 35.5802831,232.333985 C34.6659007,231.283959 33.8684743,230.152482 32.7946066,229.240571 C32.3994375,228.905908 30.8329375,228.852787 30.6894007,229.068813 C30.0869007,229.970099 29.8210919,231.025437 29.3302316,232.289717 C29.2309963,232.318048 29.0201213,232.376482 28.7419081,232.454392 C29.2646654,232.918316 29.6226213,233.235271 30.2357537,233.777106 C29.4418713,233.718673 28.8517757,233.819603 28.6249522,233.630138 C27.8151213,232.950189 27.2055331,232.105564 26.3779816,231.445093 C24.942614,230.29945 23.4753493,229.16266 21.8680919,228.194087 C21.327614,227.868278 20.3193125,228.066596 19.5236581,228.02587 C19.6211213,228.634991 19.5094816,229.336189 19.8497169,229.830214 C21.0175037,231.524775 22.3447757,233.144966 23.6153419,234.802341 C23.4629449,235.165335 23.2520699,235.666443 23.0075257,236.245462 C21.1876213,237.042278 19.1444375,236.959055 17.3723787,235.471666 C17.3475699,235.452189 16.8230404,235.832889 16.5182463,236.03652 C13.6421949,234.239259 7.78022426,233.764711 5.25326838,235.30345 C8.46069485,239.167118 13.7520625,239.831131 18.618136,241.063539 C17.592114,241.568189 16.690136,242.012634 15.4656434,242.614673 C16.959489,243.574392 18.1414522,244.335794 19.3234154,245.095424 C19.218864,245.279577 19.1160846,245.460189 19.0133051,245.644341 C17.7834963,245.320303 16.5643199,244.964392 15.3221066,244.684622 C14.2641875,244.445577 13.2576581,243.54252 12.0632904,244.433182 C10.3585699,245.709857 12.0756949,246.510214 12.9121066,247.786889 C11.0053713,248.132176 9.22976838,248.454443 7.44176103,248.778482 C6.86052574,249.056482 6.13929779,249.399997 5.46059926,249.724036 C5.53502574,249.851526 5.65198162,250.055157 5.55097426,249.878087 C3.95434926,250.503144 2.43215074,251.101641 0.693761029,251.783361 C1.05526103,252.013552 1.29094485,252.164061 1.57093015,252.341131 C0.984378676,252.620902 0.415547794,252.89359 -0.000886029412,253.091908 C0.163915441,254.501386 0.309224265,255.77452 0.429724265,256.821004 C1.99976838,256.7608 3.29514338,256.71122 4.80670956,256.654558 C5.99930515,256.185322 7.48429044,255.604532 8.91079779,255.046762 C8.91611397,255.108736 8.94446691,255.400902 8.99585662,255.97815 C9.58418015,255.211437 9.98289338,254.690851 10.4383125,254.095896 C10.6119743,254.427017 10.7289301,254.651896 10.6988051,254.591692 C11.538761,254.428787 12.2670772,254.287131 12.9953934,254.145475 L12.9812169,254.170265 C14.6593566,253.796647 16.3374963,253.421259 18.3346066,252.973271 C16.5944449,255.013118 15.1909743,256.58373 13.8938272,258.211004 C13.2806949,258.977717 14.2854522,260.19773 15.4904522,260.259704 C18.347011,260.406673 20.3547537,258.951157 22.0116287,257.463768 C24.2834081,255.423921 25.9172463,252.875883 29.8565331,252.096775 C28.8677243,253.862163 27.9515699,255.423921 27.1222463,257.017552 C26.8369449,257.562927 26.5321507,258.223399 26.6508787,258.770545 C26.9680772,260.213666 28.798614,260.518227 30.0248787,259.176036 C31.2812684,257.798431 32.3356434,256.206571 33.0001654,254.579297 C34.1449154,251.774507 36.4875772,254.825424 37.9743346,253.761233 C38.2206507,253.585934 39.1244007,254.026838 40.0387831,254.265883 C37.355886,255.151233 34.5454007,254.818341 33.3528051,257.263679 C35.9063419,259.38852 39.3990699,258.102991 42.7110478,258.752838 C40.9584816,259.762138 39.1740184,260.385424 38.1338199,261.483259 C36.6045331,263.096367 33.6558272,264.31815 35.0610699,267.372609 C36.9660331,266.814838 38.862136,266.26238 40.758239,265.70815 C38.8479596,267.544367 37.2690551,269.405373 36.5513713,271.638227 C36.1934154,272.753768 35.8319154,274.019819 36.1455699,275.085781 C36.5159301,276.337666 39.6347537,276.286316 40.8875993,275.00787 C42.6933272,273.164571 44.3555184,271.227424 46.0425184,269.37173 C46.2161801,269.508074 46.483761,269.715246 46.7371654,269.910023 C47.235114,268.275666 47.6976213,266.761717 48.1583566,265.245997 C49.1507096,269.155704 49.1507096,269.155704 51.2187022,270.480189 C51.8672757,269.987934 52.4945846,269.511615 53.2335331,268.948532 C53.4816213,269.240698 54.0858934,269.651501 53.9972904,269.890545 C53.5294669,271.170762 52.8915257,272.406711 52.3067463,273.655055 C51.8672757,274.593526 53.5135184,276.367768 54.7291507,276.194239 C55.6329007,276.066749 56.7811949,276.004775 57.3358493,275.530227 C58.8013419,274.283654 60.0027978,272.828138 61.3477904,271.415118 C61.5055037,271.641768 61.7004301,271.92331 61.9573787,272.291615 C62.7069596,270.542163 63.6514669,269.125603 63.865886,267.639985 C64.1511875,265.647946 65.4820037,266.41466 66.4158787,266.416431 C66.8004154,267.808201 66.9705331,269.038838 67.4986066,270.157921 C68.023136,271.269921 68.595511,272.389004 69.1483934,273.488609 C69.1856066,273.561208 69.2086434,273.64266 69.2440846,273.717029 C85.8589081,272.134023 102.914974,274.182724 119.551063,274.494367 C136.654974,274.814864 153.75357,273.764838 170.871658,273.752443 C170.807864,273.679845 170.767107,273.607246 170.772423,273.547042 C170.87343,272.610341 171.153415,271.687806 171.360746,270.795373 C176.834636,273.805564 177.626746,273.89587 179.10996,271.638227 C181.007835,272.360673 181.326805,274.264176 183.322143,275.114112 C184.725614,275.709068 185.801254,276.833462 187.036379,277.998583 C188.252011,277.830367 189.47296,277.632048 190.702768,277.38238 C190.88529,277.343424 191.060724,277.325717 191.239702,277.297386 C191.195401,276.891896 191.149327,276.521819 191.154643,276.167679 C191.163504,275.680736 191.250335,275.193794 191.29818,274.747577 C190.552143,274.019819 189.73168,273.223004 188.88818,272.401399 C189.033489,272.3288 189.329423,272.181832 189.469415,272.112775 C186.440967,269.770138 183.57732,267.55322 180.690636,265.320367 C182.407761,265.495666 184.13729,265.672736 185.826063,265.842724 C186.153893,264.84759 184.665364,263.477068 186.96904,263.491233 C187.684952,263.891411 186.625261,265.722316 188.430989,265.022889 C189.676746,266.154367 190.846305,267.315946 192.15054,268.365972 C193.227952,269.231845 194.868879,269.789615 195.526313,270.802456 C196.35032,272.073819 197.496842,272.713042 198.974739,272.945004 C199.830643,273.079577 201.631055,273.688698 201.212849,271.84894 C201.019695,271.000775 200.732621,270.133131 200.255938,269.37173 C199.827099,268.686469 199.081063,268.132239 198.503371,267.55145 C198.544129,267.531972 198.836518,267.40094 199.235232,267.222099 C198.319077,266.474864 196.683467,265.725857 196.734857,265.061845 C196.830548,263.799335 194.604842,264.511157 194.934445,263.138864 C195.049629,262.660775 193.281114,261.906456 192.418121,261.238902 C192.00346,260.916634 191.645504,260.52708 191.383239,260.116278 C191.322989,260.022431 191.769548,259.712558 192.00346,259.480596 C192.338379,259.866609 192.604188,260.17294 192.908982,260.521768 C193.126945,260.199501 193.28643,259.962227 193.461864,259.701934 C195.460746,261.678036 197.369254,261.895832 199.912158,260.622698 C200.218724,260.468647 200.876158,260.608532 201.264239,260.776749 C202.651761,261.375246 203.994982,262.046341 205.57743,262.793577 C205.524268,262.133106 205.490599,261.711679 205.472879,261.490341 C206.647754,261.933017 207.916548,262.3208 209.068386,262.871488 C210.757158,263.678927 212.81629,263.121157 214.288871,263.593934 C217.27479,264.553654 219.418982,263.562061 222.052261,262.703271 C221.175092,261.761259 220.572592,260.90601 219.72732,260.265017 C218.882048,259.624023 217.870202,258.947615 216.798107,258.73159 C215.451342,258.458902 214.854158,257.97373 214.809857,256.898915 C214.762011,255.788685 214.687585,254.678456 214.625563,253.554061 C216.328511,253.95601 217.948173,254.513781 219.628085,254.696163 C221.912268,254.945832 224.540232,255.69838 225.918893,253.240647 C226.140401,252.845781 226.253813,252.008239 226.064202,251.925017 C224.531371,251.268087 222.93829,250.692609 221.316857,250.193271 C220.345768,249.894023 219.289621,249.780698 218.180313,249.564673 C220.496393,247.014864 220.841945,245.828494 214.669864,241.144991 C216.962908,239.832902 218.99546,241.380494 221.132563,241.584125 C224.290371,241.885144 227.283379,243.269832 230.565232,242.713832 C231.520371,242.552698 232.650945,242.058673 233.155982,241.422991 C233.72304,240.711169 232.987636,240.034762 231.956298,239.728431 C231.764915,239.671768 231.621379,239.308775 231.624923,239.089208 C231.626695,238.965259 231.963386,238.749233 232.165401,238.735068 C233.521026,238.632367 234.91032,238.692571 236.230504,238.465921 C237.334496,238.278227 238.739739,238.001997 239.319202,237.348609 C239.98904,236.596061 237.882063,234.035628 236.721364,234.122392 L236.721364,234.122392 Z" id="Fill-1" fill="#231F20" mask="url(#mask-2)"></path>
                        </g>
                        <polygon id="Fill-4" fill="#231F20" points="112.5 0 117.811914 16.4252189 135 16.4252189 121.094043 26.5765484 126.405957 43 112.5 32.8486704 98.5940432 43 103.905957 26.5765484 90 16.4252189 107.188086 16.4252189"></polygon>
                        <polygon id="Fill-6" fill="#231F20" points="111.836132 29.1218396 110 44 116 44 114.162131 29"></polygon>
                        <path d="M200,222.5 C200,227.193789 196.193789,231 191.5,231 C186.804421,231 183,227.193789 183,222.5 C183,217.806211 186.804421,214 191.5,214 C196.193789,214 200,217.806211 200,222.5" id="Fill-8" fill="#231F20"></path>
                        <mask id="mask-4" fill="white">
                            <use xlink:href="#path-3"></use>
                        </mask>
                        <g id="Clip-11"></g>
                        <polygon id="Fill-10" fill="#231F20" mask="url(#mask-4)" points="191 213 191.666 213 191.666 207 191 207"></polygon>
                        <polygon id="Fill-12" fill="#231F20" mask="url(#mask-4)" points="189 217 193 217 193 212 189 212"></polygon>
                        <path d="M68,176 C68,178.761221 65.7608188,181 62.9991022,181 C60.2373855,181 58,178.761221 58,176 C58,173.238779 60.2373855,171 62.9991022,171 C65.7608188,171 68,173.238779 68,176" id="Fill-13" fill="#231F20" mask="url(#mask-4)"></path>
                        <polygon id="Fill-14" fill="#231F20" mask="url(#mask-4)" points="63 170 63.39 170 63.39 167 63 167"></polygon>
                        <polygon id="Fill-15" fill="#231F20" mask="url(#mask-4)" points="62 173 65 173 65 170 62 170"></polygon>
                        <path d="M174,176 C174,178.761221 171.760819,181 168.999102,181 C166.237386,181 164,178.761221 164,176 C164,173.238779 166.237386,171 168.999102,171 C171.760819,171 174,173.238779 174,176" id="Fill-16" fill="#231F20" mask="url(#mask-4)"></path>
                        <polygon id="Fill-17" fill="#231F20" mask="url(#mask-4)" points="169 169 169.39 169 169.39 162 169 162"></polygon>
                        <polygon id="Fill-18" fill="#231F20" mask="url(#mask-4)" points="168 172 171 172 171 169 168 169"></polygon>
                        <path d="M57,254.000898 C57,256.762614 54.7608188,259 51.9991022,259 C49.2391812,259 47,256.762614 47,254.000898 C47,251.239181 49.2391812,249 51.9991022,249 C54.7608188,249 57,251.239181 57,254.000898" id="Fill-19" fill="#231F20" mask="url(#mask-4)"></path>
                        <polygon id="Fill-20" fill="#231F20" mask="url(#mask-4)" points="51 248 51.39 248 51.39 241 51 241"></polygon>
                        <polygon id="Fill-21" fill="#231F20" mask="url(#mask-4)" points="50 251 53 251 53 248 50 248"></polygon>
                        <path d="M164,121.5 C164,126.193789 160.193789,130 155.5,130 C150.804421,130 147,126.193789 147,121.5 C147,116.804421 150.804421,113 155.5,113 C160.193789,113 164,116.804421 164,121.5" id="Fill-22" fill="#231F20" mask="url(#mask-4)"></path>
                        <polygon id="Fill-23" fill="#231F20" mask="url(#mask-4)" points="155 112 155.666 112 155.666 106 155 106"></polygon>
                        <polygon id="Fill-24" fill="#231F20" mask="url(#mask-4)" points="153 116 157 116 157 111 153 111"></polygon>
                        <path d="M90,130.5 C90,135.195579 86.1955789,139 81.5,139 C76.8044211,139 73,135.195579 73,130.5 C73,125.806211 76.8044211,122 81.5,122 C86.1955789,122 90,125.806211 90,130.5" id="Fill-25" fill="#231F20" mask="url(#mask-4)"></path>
                        <polygon id="Fill-26" fill="#231F20" mask="url(#mask-4)" points="81 120 81.666 120 81.666 114 81 114"></polygon>
                        <polygon id="Fill-27" fill="#231F20" mask="url(#mask-4)" points="79 124 83 124 83 119 79 119"></polygon>
                        <path d="M42,211.5 C42,216.193789 38.1937895,220 33.5,220 C28.8044211,220 25,216.193789 25,211.5 C25,206.804421 28.8044211,203 33.5,203 C38.1937895,203 42,206.804421 42,211.5" id="Fill-28" fill="#231F20" mask="url(#mask-4)"></path>
                        <polygon id="Fill-29" fill="#231F20" mask="url(#mask-4)" points="34 202 34.666 202 34.666 196 34 196"></polygon>
                        <polygon id="Fill-30" fill="#231F20" mask="url(#mask-4)" points="32 206 36 206 36 201 32 201"></polygon>
                    </g>
                </g>
            </g>
        </g>
    </g>
</svg>